<?xml version="1.0" standalone="no"?>
<!DOCTYPE svg PUBLIC "-//W3C//DTD SVG 20010904//EN"
 "http://www.w3.org/TR/2001/REC-SVG-20010904/DTD/svg10.dtd">
<svg version="1.0" xmlns="http://www.w3.org/2000/svg"
 width="149.000000pt" height="132.000000pt" viewBox="0 0 149.000000 132.000000"
 preserveAspectRatio="xMidYMid meet">
<metadata>
Created by potrace 1.16, written by Peter Selinger 2001-2019
</metadata>
<g transform="translate(0.000000,132.000000) scale(0.100000,-0.100000)"
fill="#000000" stroke="none">
<path d="M746 1215 c-16 -26 -25 -53 -22 -62 4 -9 70 -126 148 -261 111 -193
138 -246 127 -253 -39 -26 -72 -40 -79 -32 -4 4 -65 107 -135 228 -70 121
-128 221 -129 222 -1 1 -15 -21 -30 -50 l-29 -52 264 -458 264 -457 57 0 c32
0 58 2 58 4 0 3 -59 106 -131 230 -72 124 -128 229 -125 233 2 5 21 17 41 28
35 18 38 18 50 2 7 -10 74 -125 150 -257 l138 -240 59 0 60 0 -19 32 c-11 18
-167 289 -348 603 -180 314 -331 574 -335 578 -4 5 -20 -13 -34 -38z"/>
<path d="M479 769 c-51 -89 -92 -167 -92 -173 0 -9 67 -130 80 -146 2 -2 24 7
48 20 l44 24 -30 52 -29 52 35 61 c20 34 38 61 40 61 6 0 135 -228 135 -239 0
-5 -40 -33 -90 -61 -49 -28 -92 -55 -94 -59 -3 -3 36 -77 86 -164 l90 -157
195 0 195 0 -14 22 c-8 13 -48 81 -88 151 -40 70 -77 130 -81 133 -5 3 -21 -2
-36 -10 -52 -28 -57 -34 -46 -48 5 -7 26 -43 47 -80 l37 -68 -74 0 -73 0 -53
92 c-29 51 -49 94 -44 96 30 12 186 109 185 115 0 8 -242 433 -268 470 -10 16
-23 -1 -105 -144z"/>
<path d="M245 363 c-66 -114 -135 -233 -153 -266 l-34 -58 63 3 62 3 40 73
c23 39 43 72 46 72 4 0 25 -34 49 -75 l42 -75 60 0 59 0 -49 85 -49 85 70 40
c38 23 69 44 69 47 0 4 -35 67 -46 82 -2 2 -31 -14 -66 -35 -35 -20 -67 -39
-72 -42 -5 -3 6 21 24 54 19 32 41 71 49 85 13 24 12 29 -15 77 l-30 52 -119
-207z"/>
</g>
</svg>
